<?xml version="1.0" encoding="UTF-8" standalone="no"?>
<!-- Created with Inkscape (http://www.inkscape.org/) -->

<svg
   xmlns:dc="http://purl.org/dc/elements/1.1/"
   xmlns:cc="http://creativecommons.org/ns#"
   xmlns:rdf="http://www.w3.org/1999/02/22-rdf-syntax-ns#"
   xmlns:svg="http://www.w3.org/2000/svg"
   xmlns="http://www.w3.org/2000/svg"
   xmlns:xlink="http://www.w3.org/1999/xlink"
   xmlns:sodipodi="http://sodipodi.sourceforge.net/DTD/sodipodi-0.dtd"
   xmlns:inkscape="http://www.inkscape.org/namespaces/inkscape"
   width="210mm"
   height="297mm"
   viewBox="0 0 744.09448819 1052.3622047"
   id="svg2"
   version="1.1"
   inkscape:version="0.91 r13725"
   sodipodi:docname="keyIcon.svg">
  <defs
     id="defs4">
    <linearGradient
       id="linearGradient4300"
       inkscape:collect="always">
      <stop
         id="stop4302"
         offset="0"
         style="stop-color:#000000;stop-opacity:1" />
      <stop
         id="stop4304"
         offset="1"
         style="stop-color:#666666;stop-opacity:1" />
    </linearGradient>
    <inkscape:path-effect
       effect="spiro"
       id="path-effect4259"
       is_visible="true" />
    <inkscape:path-effect
       is_visible="true"
       id="path-effect4226"
       effect="spiro" />
    <inkscape:path-effect
       is_visible="true"
       id="path-effect4221"
       effect="spiro" />
    <inkscape:path-effect
       effect="spiro"
       id="path-effect4215"
       is_visible="true" />
    <linearGradient
       inkscape:collect="always"
       xlink:href="#linearGradient4300"
       id="linearGradient4273"
       x1="302.85742"
       y1="227.36131"
       x2="302.85742"
       y2="239.86131"
       gradientUnits="userSpaceOnUse"
       gradientTransform="translate(194.45437,-146.9772)" />
    <linearGradient
       inkscape:collect="always"
       xlink:href="#linearGradient4300"
       id="linearGradient4325"
       x1="387.85742"
       y1="187.36133"
       x2="387.85742"
       y2="267.36133"
       gradientUnits="userSpaceOnUse"
       gradientTransform="translate(194.45437,-146.9772)" />
    <linearGradient
       inkscape:collect="always"
       xlink:href="#linearGradient4300"
       id="linearGradient4338"
       gradientUnits="userSpaceOnUse"
       x1="387.85742"
       y1="187.36133"
       x2="387.85742"
       y2="267.36133" />
    <linearGradient
       inkscape:collect="always"
       xlink:href="#linearGradient4300"
       id="linearGradient4340"
       gradientUnits="userSpaceOnUse"
       x1="302.85742"
       y1="227.36131"
       x2="302.85742"
       y2="239.86131" />
  </defs>
  <sodipodi:namedview
     id="base"
     pagecolor="#ffffff"
     bordercolor="#666666"
     borderopacity="1.0"
     inkscape:pageopacity="0.0"
     inkscape:pageshadow="2"
     inkscape:zoom="1.979899"
     inkscape:cx="311.22029"
     inkscape:cy="868.44915"
     inkscape:document-units="px"
     inkscape:current-layer="layer1"
     showgrid="false"
     inkscape:snap-bbox="true"
     inkscape:bbox-paths="true"
     inkscape:bbox-nodes="true"
     inkscape:snap-bbox-edge-midpoints="true"
     inkscape:snap-bbox-midpoints="true"
     inkscape:snap-intersection-paths="true"
     inkscape:object-nodes="true"
     inkscape:snap-smooth-nodes="true"
     inkscape:snap-global="true"
     inkscape:window-width="1855"
     inkscape:window-height="1176"
     inkscape:window-x="65"
     inkscape:window-y="24"
     inkscape:window-maximized="1" />
  <metadata
     id="metadata7">
    <rdf:RDF>
      <cc:Work
         rdf:about="">
        <dc:format>image/svg+xml</dc:format>
        <dc:type
           rdf:resource="http://purl.org/dc/dcmitype/StillImage" />
        <dc:title></dc:title>
      </cc:Work>
    </rdf:RDF>
  </metadata>
  <g
     inkscape:label="Layer 1"
     inkscape:groupmode="layer"
     id="layer1">
    <path
       style="fill:#000000;fill-opacity:1;stroke:none;stroke-width:5;stroke-miterlimit:4;stroke-dasharray:none;stroke-opacity:1"
       d="m 462.31179,67.884135 -4.54687,3.78906 89.54687,0 0,-3.78906 -85,0 z m -9.04687,7.53906 -5.95313,4.96094 15,12.5 26.11524,0 4.04101,-7 1.875,7 3.30274,0 1.875,-7 4.56445,0 1.875,7 1.78711,0 1.875,-7 6.33203,0 1.875,7 4.56445,0 4.04102,-7 1.875,7 3.80664,0 1.875,-7 3.80664,0 1.87695,7 7.63672,0 0,-17.46094 -94.04687,0 z"
       id="path4253"
       inkscape:connector-curvature="0" />
    <path
       style="fill:url(#linearGradient4325);fill-opacity:1;stroke:none;stroke-width:5;stroke-miterlimit:4;stroke-dasharray:none;stroke-opacity:1"
       d="m 577.31179,40.384135 a 40,40 0 0 0 -15,2.94531 l 0,12.05469 -15,0 0,49.999995 15,0 0,12.05469 a 40,40 0 0 0 15,2.94531 40,40 0 0 0 40,-39.999995 40,40 0 0 0 -40,-40 z m 11.98047,25.53515 a 14.463973,14.463973 0 0 1 14.46289,14.46485 14.463973,14.463973 0 0 1 -14.46289,14.46484 14.463973,14.463973 0 0 1 -5.42383,-1.0664 l 0,-26.79688 a 14.463973,14.463973 0 0 1 5.42383,-1.06641 z"
       id="path4136"
       inkscape:connector-curvature="0" />
    <path
       style="fill:url(#linearGradient4273);fill-opacity:1;stroke:none;stroke-width:5;stroke-miterlimit:4;stroke-dasharray:none;stroke-opacity:1"
       d="m 447.31179,80.384125 15,12.5 26.11523,0 4.04102,-7 1.875,7 3.30273,0 1.875,-7 4.56445,0 1.875,7 1.78711,0 1.875,-7 6.33203,0 1.875,7 4.56446,0 4.04101,-7 1.875,7 3.80664,0 1.875,-7 3.80664,0 1.87696,7 7.63672,0 0,-12.5 -100,0 z"
       id="path4262"
       inkscape:connector-curvature="0" />
    <g
       id="g4333"
       transform="matrix(0.8660254,-0.5,0.5,0.8660254,-240.14229,68.5746)">
      <path
         style="fill:#000000;fill-opacity:1;stroke:none;stroke-width:5;stroke-miterlimit:4;stroke-dasharray:none;stroke-opacity:1"
         d="m 267.85742,214.86133 -4.54687,3.78906 89.54687,0 0,-3.78906 -85,0 z m -9.04687,7.53906 -5.95313,4.96094 15,12.5 26.11524,0 4.04101,-7 1.875,7 3.30274,0 1.875,-7 4.56445,0 1.875,7 1.78711,0 1.875,-7 6.33203,0 1.875,7 4.56445,0 4.04102,-7 1.875,7 3.80664,0 1.875,-7 3.80664,0 1.87695,7 7.63672,0 0,-17.46094 -94.04687,0 z"
         id="path4327"
         inkscape:connector-curvature="0" />
      <path
         style="fill:url(#linearGradient4338);fill-opacity:1;stroke:none;stroke-width:5;stroke-miterlimit:4;stroke-dasharray:none;stroke-opacity:1"
         d="m 382.85742,187.36133 a 40,40 0 0 0 -15,2.94531 l 0,12.05469 -15,0 0,50 15,0 0,12.05469 a 40,40 0 0 0 15,2.94531 40,40 0 0 0 40,-40 40,40 0 0 0 -40,-40 z m 11.98047,25.53515 a 14.463973,14.463973 0 0 1 14.46289,14.46485 14.463973,14.463973 0 0 1 -14.46289,14.46484 14.463973,14.463973 0 0 1 -5.42383,-1.0664 l 0,-26.79688 a 14.463973,14.463973 0 0 1 5.42383,-1.06641 z"
         id="path4329"
         inkscape:connector-curvature="0" />
      <path
         style="fill:url(#linearGradient4340);fill-opacity:1;stroke:none;stroke-width:5;stroke-miterlimit:4;stroke-dasharray:none;stroke-opacity:1"
         d="m 252.85742,227.36132 15,12.5 26.11523,0 4.04102,-7 1.875,7 3.30273,0 1.875,-7 4.56445,0 1.875,7 1.78711,0 1.875,-7 6.33203,0 1.875,7 4.56446,0 4.04101,-7 1.875,7 3.80664,0 1.875,-7 3.80664,0 1.87696,7 7.63672,0 0,-12.5 -100,0 z"
         id="path4331"
         inkscape:connector-curvature="0" />
    </g>
  </g>
</svg>
